<mxfile host="app.diagrams.net" agent="Mozilla/5.0 (X11; Ubuntu; Linux x86_64; rv:137.0) Gecko/20100101 Firefox/137.0" version="26.2.13">
  <diagram name="Sequence Diagrams" id="PqVdLilWQaQTERFtA55Q">
    <mxGraphModel dx="1576" dy="733" grid="1" gridSize="10" guides="1" tooltips="1" connect="1" arrows="1" fold="1" page="1" pageScale="1" pageWidth="850" pageHeight="1100" math="0" shadow="0">
      <root>
        <mxCell id="0" />
        <mxCell id="1" parent="0" />
        <mxCell id="QCJIKbQHmswwI0LsJEza-1" value="Museum App Offline Mode - Sequence Diagrams" style="text;html=1;strokeColor=none;fillColor=none;align=center;verticalAlign=middle;whiteSpace=wrap;rounded=0;fontSize=16;fontStyle=1" vertex="1" parent="1">
          <mxGeometry x="350" y="20" width="400" height="30" as="geometry" />
        </mxCell>
        <mxCell id="QCJIKbQHmswwI0LsJEza-2" value="Scenario 1: User Downloads Museum Content for Offline Use" style="text;html=1;strokeColor=none;fillColor=none;align=left;verticalAlign=middle;whiteSpace=wrap;rounded=0;fontSize=14;fontStyle=1" vertex="1" parent="1">
          <mxGeometry x="50" y="60" width="500" height="30" as="geometry" />
        </mxCell>
        <mxCell id="QCJIKbQHmswwI0LsJEza-3" value="User" style="shape=umlLifeline;perimeter=lifelinePerimeter;whiteSpace=wrap;html=1;container=1;collapsible=0;recursiveResize=0;outlineConnect=0;" vertex="1" parent="1">
          <mxGeometry x="50" y="100" width="100" height="400" as="geometry" />
        </mxCell>
        <mxCell id="QCJIKbQHmswwI0LsJEza-4" value="OfflineMode&#xa;Controller" style="shape=umlLifeline;perimeter=lifelinePerimeter;whiteSpace=wrap;html=1;container=1;collapsible=0;recursiveResize=0;outlineConnect=0;" vertex="1" parent="1">
          <mxGeometry x="200" y="100" width="100" height="400" as="geometry" />
        </mxCell>
        <mxCell id="QCJIKbQHmswwI0LsJEza-5" value="OfflineContent&#xa;Manager" style="shape=umlLifeline;perimeter=lifelinePerimeter;whiteSpace=wrap;html=1;container=1;collapsible=0;recursiveResize=0;outlineConnect=0;" vertex="1" parent="1">
          <mxGeometry x="350" y="100" width="100" height="400" as="geometry" />
        </mxCell>
        <mxCell id="QCJIKbQHmswwI0LsJEza-6" value="Connectivity&#xa;Manager" style="shape=umlLifeline;perimeter=lifelinePerimeter;whiteSpace=wrap;html=1;container=1;collapsible=0;recursiveResize=0;outlineConnect=0;" vertex="1" parent="1">
          <mxGeometry x="500" y="100" width="100" height="400" as="geometry" />
        </mxCell>
        <mxCell id="QCJIKbQHmswwI0LsJEza-7" value="LocalStorage&#xa;Service" style="shape=umlLifeline;perimeter=lifelinePerimeter;whiteSpace=wrap;html=1;container=1;collapsible=0;recursiveResize=0;outlineConnect=0;" vertex="1" parent="1">
          <mxGeometry x="650" y="100" width="100" height="400" as="geometry" />
        </mxCell>
        <mxCell id="QCJIKbQHmswwI0LsJEza-8" value="1. Select &quot;Download for Offline Use&quot;" style="html=1;verticalAlign=bottom;endArrow=block;rounded=0;" edge="1" parent="1" source="QCJIKbQHmswwI0LsJEza-3" target="QCJIKbQHmswwI0LsJEza-4">
          <mxGeometry width="80" relative="1" as="geometry">
            <mxPoint x="100" y="160" as="sourcePoint" />
            <mxPoint x="180" y="160" as="targetPoint" />
            <Array as="points">
              <mxPoint x="170" y="160" />
            </Array>
          </mxGeometry>
        </mxCell>
        <mxCell id="QCJIKbQHmswwI0LsJEza-9" value="2. checkConnectivity()" style="html=1;verticalAlign=bottom;endArrow=block;rounded=0;" edge="1" parent="1" source="QCJIKbQHmswwI0LsJEza-4" target="QCJIKbQHmswwI0LsJEza-6">
          <mxGeometry width="80" relative="1" as="geometry">
            <mxPoint x="100" y="180" as="sourcePoint" />
            <mxPoint x="180" y="180" as="targetPoint" />
            <Array as="points">
              <mxPoint x="360" y="180" />
            </Array>
          </mxGeometry>
        </mxCell>
        <mxCell id="QCJIKbQHmswwI0LsJEza-10" value="3. return true" style="html=1;verticalAlign=bottom;endArrow=open;dashed=1;endSize=8;rounded=0;" edge="1" parent="1" source="QCJIKbQHmswwI0LsJEza-6" target="QCJIKbQHmswwI0LsJEza-4">
          <mxGeometry relative="1" as="geometry">
            <mxPoint x="180" y="200" as="sourcePoint" />
            <mxPoint x="100" y="200" as="targetPoint" />
            <Array as="points">
              <mxPoint x="420" y="200" />
            </Array>
          </mxGeometry>
        </mxCell>
        <mxCell id="QCJIKbQHmswwI0LsJEza-11" value="4. getAvailableCategories()" style="html=1;verticalAlign=bottom;endArrow=block;rounded=0;" edge="1" parent="1" source="QCJIKbQHmswwI0LsJEza-4" target="QCJIKbQHmswwI0LsJEza-5">
          <mxGeometry width="80" relative="1" as="geometry">
            <mxPoint x="100" y="220" as="sourcePoint" />
            <mxPoint x="180" y="220" as="targetPoint" />
            <Array as="points">
              <mxPoint x="320" y="220" />
            </Array>
          </mxGeometry>
        </mxCell>
        <mxCell id="QCJIKbQHmswwI0LsJEza-12" value="5. return categories" style="html=1;verticalAlign=bottom;endArrow=open;dashed=1;endSize=8;rounded=0;" edge="1" parent="1" source="QCJIKbQHmswwI0LsJEza-5" target="QCJIKbQHmswwI0LsJEza-4">
          <mxGeometry relative="1" as="geometry">
            <mxPoint x="180" y="240" as="sourcePoint" />
            <mxPoint x="100" y="240" as="targetPoint" />
            <Array as="points">
              <mxPoint x="320" y="240" />
            </Array>
          </mxGeometry>
        </mxCell>
        <mxCell id="QCJIKbQHmswwI0LsJEza-13" value="6. display available categories" style="html=1;verticalAlign=bottom;endArrow=open;dashed=1;endSize=8;rounded=0;" edge="1" parent="1" source="QCJIKbQHmswwI0LsJEza-4" target="QCJIKbQHmswwI0LsJEza-3">
          <mxGeometry relative="1" as="geometry">
            <mxPoint x="180" y="260" as="sourcePoint" />
            <mxPoint x="100" y="260" as="targetPoint" />
            <Array as="points">
              <mxPoint x="170" y="260" />
            </Array>
          </mxGeometry>
        </mxCell>
        <mxCell id="QCJIKbQHmswwI0LsJEza-14" value="7. select categories" style="html=1;verticalAlign=bottom;endArrow=block;rounded=0;" edge="1" parent="1" source="QCJIKbQHmswwI0LsJEza-3" target="QCJIKbQHmswwI0LsJEza-4">
          <mxGeometry width="80" relative="1" as="geometry">
            <mxPoint x="100" y="280" as="sourcePoint" />
            <mxPoint x="180" y="280" as="targetPoint" />
            <Array as="points">
              <mxPoint x="170" y="280" />
            </Array>
          </mxGeometry>
        </mxCell>
        <mxCell id="QCJIKbQHmswwI0LsJEza-15" value="8. getStorageRequirement(categories)" style="html=1;verticalAlign=bottom;endArrow=block;rounded=0;" edge="1" parent="1" source="QCJIKbQHmswwI0LsJEza-4" target="QCJIKbQHmswwI0LsJEza-5">
          <mxGeometry width="80" relative="1" as="geometry">
            <mxPoint x="100" y="300" as="sourcePoint" />
            <mxPoint x="180" y="300" as="targetPoint" />
            <Array as="points">
              <mxPoint x="330" y="300" />
            </Array>
          </mxGeometry>
        </mxCell>
        <mxCell id="QCJIKbQHmswwI0LsJEza-16" value="9. getStorageStats()" style="html=1;verticalAlign=bottom;endArrow=block;rounded=0;" edge="1" parent="1" source="QCJIKbQHmswwI0LsJEza-5" target="QCJIKbQHmswwI0LsJEza-7">
          <mxGeometry width="80" relative="1" as="geometry">
            <mxPoint x="100" y="320" as="sourcePoint" />
            <mxPoint x="180" y="320" as="targetPoint" />
            <Array as="points">
              <mxPoint x="550" y="320" />
            </Array>
          </mxGeometry>
        </mxCell>
        <mxCell id="QCJIKbQHmswwI0LsJEza-17" value="10. return stats" style="html=1;verticalAlign=bottom;endArrow=open;dashed=1;endSize=8;rounded=0;" edge="1" parent="1" source="QCJIKbQHmswwI0LsJEza-7" target="QCJIKbQHmswwI0LsJEza-5">
          <mxGeometry relative="1" as="geometry">
            <mxPoint x="180" y="340" as="sourcePoint" />
            <mxPoint x="100" y="340" as="targetPoint" />
            <Array as="points">
              <mxPoint x="550" y="340" />
            </Array>
          </mxGeometry>
        </mxCell>
        <mxCell id="QCJIKbQHmswwI0LsJEza-18" value="11. return requirements" style="html=1;verticalAlign=bottom;endArrow=open;dashed=1;endSize=8;rounded=0;" edge="1" parent="1" source="QCJIKbQHmswwI0LsJEza-5" target="QCJIKbQHmswwI0LsJEza-4">
          <mxGeometry relative="1" as="geometry">
            <mxPoint x="180" y="360" as="sourcePoint" />
            <mxPoint x="100" y="360" as="targetPoint" />
            <Array as="points">
              <mxPoint x="330" y="360" />
            </Array>
          </mxGeometry>
        </mxCell>
        <mxCell id="QCJIKbQHmswwI0LsJEza-19" value="12. display storage requirements" style="html=1;verticalAlign=bottom;endArrow=open;dashed=1;endSize=8;rounded=0;" edge="1" parent="1" source="QCJIKbQHmswwI0LsJEza-4" target="QCJIKbQHmswwI0LsJEza-3">
          <mxGeometry relative="1" as="geometry">
            <mxPoint x="180" y="380" as="sourcePoint" />
            <mxPoint x="100" y="380" as="targetPoint" />
            <Array as="points">
              <mxPoint x="170" y="380" />
            </Array>
          </mxGeometry>
        </mxCell>
        <mxCell id="QCJIKbQHmswwI0LsJEza-20" value="13. confirm download" style="html=1;verticalAlign=bottom;endArrow=block;rounded=0;" edge="1" parent="1" source="QCJIKbQHmswwI0LsJEza-3" target="QCJIKbQHmswwI0LsJEza-4">
          <mxGeometry width="80" relative="1" as="geometry">
            <mxPoint x="100" y="400" as="sourcePoint" />
            <mxPoint x="180" y="400" as="targetPoint" />
            <Array as="points">
              <mxPoint x="170" y="400" />
            </Array>
          </mxGeometry>
        </mxCell>
        <mxCell id="QCJIKbQHmswwI0LsJEza-21" value="14. downloadContent(categories)" style="html=1;verticalAlign=bottom;endArrow=block;rounded=0;" edge="1" parent="1" source="QCJIKbQHmswwI0LsJEza-4" target="QCJIKbQHmswwI0LsJEza-5">
          <mxGeometry width="80" relative="1" as="geometry">
            <mxPoint x="100" y="420" as="sourcePoint" />
            <mxPoint x="180" y="420" as="targetPoint" />
            <Array as="points">
              <mxPoint x="330" y="420" />
            </Array>
          </mxGeometry>
        </mxCell>
        <mxCell id="QCJIKbQHmswwI0LsJEza-22" value="15. saveContent(content, categories)" style="html=1;verticalAlign=bottom;endArrow=block;rounded=0;" edge="1" parent="1" source="QCJIKbQHmswwI0LsJEza-5" target="QCJIKbQHmswwI0LsJEza-7">
          <mxGeometry width="80" relative="1" as="geometry">
            <mxPoint x="100" y="440" as="sourcePoint" />
            <mxPoint x="180" y="440" as="targetPoint" />
            <Array as="points">
              <mxPoint x="550" y="440" />
            </Array>
          </mxGeometry>
        </mxCell>
        <mxCell id="QCJIKbQHmswwI0LsJEza-23" value="Scenario 2: User Navigates Museum in Offline Mode (Observer Pattern in Action)" style="text;html=1;strokeColor=none;fillColor=none;align=left;verticalAlign=middle;whiteSpace=wrap;rounded=0;fontSize=14;fontStyle=1" vertex="1" parent="1">
          <mxGeometry x="50" y="520" width="600" height="30" as="geometry" />
        </mxCell>
        <mxCell id="QCJIKbQHmswwI0LsJEza-24" value="User" style="shape=umlLifeline;perimeter=lifelinePerimeter;whiteSpace=wrap;html=1;container=1;collapsible=0;recursiveResize=0;outlineConnect=0;" vertex="1" parent="1">
          <mxGeometry x="50" y="560" width="100" height="500" as="geometry" />
        </mxCell>
        <mxCell id="QCJIKbQHmswwI0LsJEza-25" value="Connectivity&#xa;Manager&#xa;(Subject)" style="shape=umlLifeline;perimeter=lifelinePerimeter;whiteSpace=wrap;html=1;container=1;collapsible=0;recursiveResize=0;outlineConnect=0;" vertex="1" parent="1">
          <mxGeometry x="200" y="560" width="100" height="500" as="geometry" />
        </mxCell>
        <mxCell id="QCJIKbQHmswwI0LsJEza-26" value="OfflineMode&#xa;Controller&#xa;(Observer)" style="shape=umlLifeline;perimeter=lifelinePerimeter;whiteSpace=wrap;html=1;container=1;collapsible=0;recursiveResize=0;outlineConnect=0;" vertex="1" parent="1">
          <mxGeometry x="350" y="560" width="100" height="500" as="geometry" />
        </mxCell>
        <mxCell id="QCJIKbQHmswwI0LsJEza-27" value="Notification&#xa;Service" style="shape=umlLifeline;perimeter=lifelinePerimeter;whiteSpace=wrap;html=1;container=1;collapsible=0;recursiveResize=0;outlineConnect=0;" vertex="1" parent="1">
          <mxGeometry x="500" y="560" width="100" height="500" as="geometry" />
        </mxCell>
        <mxCell id="QCJIKbQHmswwI0LsJEza-28" value="OfflineMap&#xa;Handler" style="shape=umlLifeline;perimeter=lifelinePerimeter;whiteSpace=wrap;html=1;container=1;collapsible=0;recursiveResize=0;outlineConnect=0;" vertex="1" parent="1">
          <mxGeometry x="650" y="560" width="100" height="500" as="geometry" />
        </mxCell>
        <mxCell id="QCJIKbQHmswwI0LsJEza-29" value="OfflineContent&#xa;Manager" style="shape=umlLifeline;perimeter=lifelinePerimeter;whiteSpace=wrap;html=1;container=1;collapsible=0;recursiveResize=0;outlineConnect=0;" vertex="1" parent="1">
          <mxGeometry x="800" y="560" width="100" height="500" as="geometry" />
        </mxCell>
        <mxCell id="QCJIKbQHmswwI0LsJEza-31" value="1. Detects connectivity lost" style="edgeStyle=orthogonalEdgeStyle;html=1;align=left;spacingLeft=2;endArrow=block;rounded=0;" edge="1" parent="1">
          <mxGeometry x="1" y="-91" relative="1" as="geometry">
            <mxPoint x="250" y="610" as="sourcePoint" />
            <Array as="points">
              <mxPoint x="320" y="610" />
              <mxPoint x="320" y="640" />
              <mxPoint x="255" y="640" />
            </Array>
            <mxPoint x="250" y="640" as="targetPoint" />
            <mxPoint x="-90" y="81" as="offset" />
          </mxGeometry>
        </mxCell>
        <mxCell id="QCJIKbQHmswwI0LsJEza-32" value="2. notifyObservers(false) - Observer Pattern" style="html=1;verticalAlign=bottom;endArrow=block;rounded=0;fontStyle=1;strokeWidth=2;" edge="1" parent="1">
          <mxGeometry x="0.0003" width="80" relative="1" as="geometry">
            <mxPoint x="245.00380952380962" y="680" as="sourcePoint" />
            <mxPoint x="394.48" y="680" as="targetPoint" />
            <Array as="points">
              <mxPoint x="314.98" y="680" />
            </Array>
            <mxPoint as="offset" />
          </mxGeometry>
        </mxCell>
        <mxCell id="QCJIKbQHmswwI0LsJEza-33" value="3. update(false) - Observer Pattern" style="html=1;verticalAlign=bottom;endArrow=block;rounded=0;fontStyle=1;strokeWidth=2;" edge="1" parent="1">
          <mxGeometry width="80" relative="1" as="geometry">
            <mxPoint x="400" y="700" as="sourcePoint" />
            <mxPoint x="400" y="720" as="targetPoint" />
            <Array as="points">
              <mxPoint x="430" y="700" />
              <mxPoint x="430" y="720" />
            </Array>
          </mxGeometry>
        </mxCell>
        <mxCell id="QCJIKbQHmswwI0LsJEza-34" value="4. switchToOfflineMode()" style="html=1;verticalAlign=bottom;endArrow=block;rounded=0;" edge="1" parent="1">
          <mxGeometry width="80" relative="1" as="geometry">
            <mxPoint x="400" y="750" as="sourcePoint" />
            <mxPoint x="400" y="770" as="targetPoint" />
            <Array as="points">
              <mxPoint x="430" y="750" />
              <mxPoint x="430" y="770" />
            </Array>
          </mxGeometry>
        </mxCell>
        <mxCell id="QCJIKbQHmswwI0LsJEza-35" value="5. showOfflineNotification()" style="html=1;verticalAlign=bottom;endArrow=block;rounded=0;" edge="1" parent="1" source="QCJIKbQHmswwI0LsJEza-26" target="QCJIKbQHmswwI0LsJEza-27">
          <mxGeometry width="80" relative="1" as="geometry">
            <mxPoint x="240" y="790" as="sourcePoint" />
            <mxPoint x="320" y="790" as="targetPoint" />
            <Array as="points">
              <mxPoint x="460" y="790" />
            </Array>
          </mxGeometry>
        </mxCell>
        <mxCell id="QCJIKbQHmswwI0LsJEza-36" value="6. display &quot;Limited functionality available&quot;" style="html=1;verticalAlign=bottom;endArrow=open;dashed=1;endSize=8;rounded=0;" edge="1" parent="1" source="QCJIKbQHmswwI0LsJEza-27" target="QCJIKbQHmswwI0LsJEza-24">
          <mxGeometry relative="1" as="geometry">
            <mxPoint x="320" y="810" as="sourcePoint" />
            <mxPoint x="240" y="810" as="targetPoint" />
            <Array as="points">
              <mxPoint x="320" y="810" />
            </Array>
          </mxGeometry>
        </mxCell>
        <mxCell id="QCJIKbQHmswwI0LsJEza-37" value="7. checkDownloadedContent()" style="html=1;verticalAlign=bottom;endArrow=block;rounded=0;" edge="1" parent="1" source="QCJIKbQHmswwI0LsJEza-26" target="QCJIKbQHmswwI0LsJEza-29">
          <mxGeometry width="80" relative="1" as="geometry">
            <mxPoint x="240" y="830" as="sourcePoint" />
            <mxPoint x="320" y="830" as="targetPoint" />
            <Array as="points">
              <mxPoint x="650" y="830" />
            </Array>
          </mxGeometry>
        </mxCell>
        <mxCell id="QCJIKbQHmswwI0LsJEza-38" value="8. return content status" style="html=1;verticalAlign=bottom;endArrow=open;dashed=1;endSize=8;rounded=0;" edge="1" parent="1" source="QCJIKbQHmswwI0LsJEza-29" target="QCJIKbQHmswwI0LsJEza-26">
          <mxGeometry relative="1" as="geometry">
            <mxPoint x="320" y="850" as="sourcePoint" />
            <mxPoint x="240" y="850" as="targetPoint" />
            <Array as="points">
              <mxPoint x="650" y="850" />
            </Array>
          </mxGeometry>
        </mxCell>
        <mxCell id="QCJIKbQHmswwI0LsJEza-39" value="9. loadOfflineMap()" style="html=1;verticalAlign=bottom;endArrow=block;rounded=0;" edge="1" parent="1" source="QCJIKbQHmswwI0LsJEza-26" target="QCJIKbQHmswwI0LsJEza-28">
          <mxGeometry width="80" relative="1" as="geometry">
            <mxPoint x="240" y="870" as="sourcePoint" />
            <mxPoint x="320" y="870" as="targetPoint" />
            <Array as="points">
              <mxPoint x="550" y="870" />
            </Array>
          </mxGeometry>
        </mxCell>
        <mxCell id="QCJIKbQHmswwI0LsJEza-40" value="10. return map data" style="html=1;verticalAlign=bottom;endArrow=open;dashed=1;endSize=8;rounded=0;" edge="1" parent="1" source="QCJIKbQHmswwI0LsJEza-28" target="QCJIKbQHmswwI0LsJEza-26">
          <mxGeometry relative="1" as="geometry">
            <mxPoint x="320" y="890" as="sourcePoint" />
            <mxPoint x="240" y="890" as="targetPoint" />
            <Array as="points">
              <mxPoint x="550" y="890" />
            </Array>
          </mxGeometry>
        </mxCell>
        <mxCell id="QCJIKbQHmswwI0LsJEza-41" value="11. display offline map" style="html=1;verticalAlign=bottom;endArrow=open;dashed=1;endSize=8;rounded=0;" edge="1" parent="1" source="QCJIKbQHmswwI0LsJEza-26" target="QCJIKbQHmswwI0LsJEza-24">
          <mxGeometry relative="1" as="geometry">
            <mxPoint x="320" y="910" as="sourcePoint" />
            <mxPoint x="240" y="910" as="targetPoint" />
            <Array as="points">
              <mxPoint x="250" y="910" />
            </Array>
          </mxGeometry>
        </mxCell>
        <mxCell id="QCJIKbQHmswwI0LsJEza-42" value="12. select destination exhibit" style="html=1;verticalAlign=bottom;endArrow=block;rounded=0;" edge="1" parent="1" source="QCJIKbQHmswwI0LsJEza-24" target="QCJIKbQHmswwI0LsJEza-26">
          <mxGeometry width="80" relative="1" as="geometry">
            <mxPoint x="240" y="930" as="sourcePoint" />
            <mxPoint x="320" y="930" as="targetPoint" />
            <Array as="points">
              <mxPoint x="250" y="930" />
            </Array>
          </mxGeometry>
        </mxCell>
        <mxCell id="QCJIKbQHmswwI0LsJEza-43" value="13. planPath(userPosition, exhibit)" style="html=1;verticalAlign=bottom;endArrow=block;rounded=0;" edge="1" parent="1" source="QCJIKbQHmswwI0LsJEza-26" target="QCJIKbQHmswwI0LsJEza-28">
          <mxGeometry width="80" relative="1" as="geometry">
            <mxPoint x="240" y="950" as="sourcePoint" />
            <mxPoint x="320" y="950" as="targetPoint" />
            <Array as="points">
              <mxPoint x="550" y="950" />
            </Array>
          </mxGeometry>
        </mxCell>
        <mxCell id="QCJIKbQHmswwI0LsJEza-44" value="14. display path with basic navigation" style="html=1;verticalAlign=bottom;endArrow=open;dashed=1;endSize=8;rounded=0;" edge="1" parent="1" source="QCJIKbQHmswwI0LsJEza-28" target="QCJIKbQHmswwI0LsJEza-24">
          <mxGeometry relative="1" as="geometry">
            <mxPoint x="320" y="970" as="sourcePoint" />
            <mxPoint x="240" y="970" as="targetPoint" />
            <Array as="points">
              <mxPoint x="400" y="970" />
            </Array>
          </mxGeometry>
        </mxCell>
        <mxCell id="QCJIKbQHmswwI0LsJEza-47" value="Scenario 3: System Synchronizes Data When Returning Online (Observer Pattern in Action)" style="text;html=1;strokeColor=none;fillColor=none;align=left;verticalAlign=middle;whiteSpace=wrap;rounded=0;fontSize=14;fontStyle=1" vertex="1" parent="1">
          <mxGeometry x="50" y="1100" width="600" height="30" as="geometry" />
        </mxCell>
        <mxCell id="QCJIKbQHmswwI0LsJEza-48" value="User" style="shape=umlLifeline;perimeter=lifelinePerimeter;whiteSpace=wrap;html=1;container=1;collapsible=0;recursiveResize=0;outlineConnect=0;" vertex="1" parent="1">
          <mxGeometry x="50" y="1140" width="100" height="500" as="geometry" />
        </mxCell>
        <mxCell id="QCJIKbQHmswwI0LsJEza-49" value="Connectivity&#xa;Manager&#xa;(Subject)" style="shape=umlLifeline;perimeter=lifelinePerimeter;whiteSpace=wrap;html=1;container=1;collapsible=0;recursiveResize=0;outlineConnect=0;" vertex="1" parent="1">
          <mxGeometry x="200" y="1140" width="100" height="500" as="geometry" />
        </mxCell>
        <mxCell id="QCJIKbQHmswwI0LsJEza-50" value="OfflineMode&#xa;Controller&#xa;(Observer)" style="shape=umlLifeline;perimeter=lifelinePerimeter;whiteSpace=wrap;html=1;container=1;collapsible=0;recursiveResize=0;outlineConnect=0;" vertex="1" parent="1">
          <mxGeometry x="350" y="1140" width="100" height="500" as="geometry" />
        </mxCell>
        <mxCell id="QCJIKbQHmswwI0LsJEza-68" value="" style="html=1;points=[];perimeter=orthogonalPerimeter;" vertex="1" parent="QCJIKbQHmswwI0LsJEza-50">
          <mxGeometry x="45" y="450" width="10" height="40" as="geometry" />
        </mxCell>
        <mxCell id="QCJIKbQHmswwI0LsJEza-51" value="Content&#xa;Synchronizer" style="shape=umlLifeline;perimeter=lifelinePerimeter;whiteSpace=wrap;html=1;container=1;collapsible=0;recursiveResize=0;outlineConnect=0;" vertex="1" parent="1">
          <mxGeometry x="500" y="1140" width="100" height="500" as="geometry" />
        </mxCell>
        <mxCell id="QCJIKbQHmswwI0LsJEza-52" value="Notification&#xa;Service" style="shape=umlLifeline;perimeter=lifelinePerimeter;whiteSpace=wrap;html=1;container=1;collapsible=0;recursiveResize=0;outlineConnect=0;" vertex="1" parent="1">
          <mxGeometry x="650" y="1140" width="100" height="500" as="geometry" />
        </mxCell>
        <mxCell id="QCJIKbQHmswwI0LsJEza-54" value="1. Detects connectivity restored" style="edgeStyle=orthogonalEdgeStyle;html=1;align=left;spacingLeft=2;endArrow=block;rounded=0;" edge="1" parent="1">
          <mxGeometry x="-1" y="-91" relative="1" as="geometry">
            <mxPoint x="250" y="1190" as="sourcePoint" />
            <Array as="points">
              <mxPoint x="330" y="1190" />
              <mxPoint x="330" y="1220" />
            </Array>
            <mxPoint x="250" y="1220" as="targetPoint" />
            <mxPoint x="-90" y="-81" as="offset" />
          </mxGeometry>
        </mxCell>
        <mxCell id="QCJIKbQHmswwI0LsJEza-55" value="2. notifyObservers(true) - Observer Pattern" style="html=1;verticalAlign=bottom;endArrow=block;rounded=0;fontStyle=1;strokeWidth=2;" edge="1" parent="1" source="QCJIKbQHmswwI0LsJEza-49" target="QCJIKbQHmswwI0LsJEza-50">
          <mxGeometry width="80" relative="1" as="geometry">
            <mxPoint x="240" y="1250" as="sourcePoint" />
            <mxPoint x="320" y="1250" as="targetPoint" />
            <Array as="points">
              <mxPoint x="320" y="1250" />
            </Array>
          </mxGeometry>
        </mxCell>
        <mxCell id="QCJIKbQHmswwI0LsJEza-56" value="3. update(true) - Observer Pattern" style="html=1;verticalAlign=bottom;endArrow=block;rounded=0;fontStyle=1;strokeWidth=2;" edge="1" parent="1">
          <mxGeometry width="80" relative="1" as="geometry">
            <mxPoint x="400" y="1280" as="sourcePoint" />
            <mxPoint x="400" y="1300" as="targetPoint" />
            <Array as="points">
              <mxPoint x="430" y="1280" />
              <mxPoint x="430" y="1300" />
            </Array>
          </mxGeometry>
        </mxCell>
        <mxCell id="QCJIKbQHmswwI0LsJEza-57" value="4. notifyUser(&quot;Connection restored&quot;)" style="html=1;verticalAlign=bottom;endArrow=block;rounded=0;" edge="1" parent="1" source="QCJIKbQHmswwI0LsJEza-50" target="QCJIKbQHmswwI0LsJEza-52">
          <mxGeometry width="80" relative="1" as="geometry">
            <mxPoint x="240" y="1330" as="sourcePoint" />
            <mxPoint x="320" y="1330" as="targetPoint" />
            <Array as="points">
              <mxPoint x="550" y="1330" />
            </Array>
          </mxGeometry>
        </mxCell>
        <mxCell id="QCJIKbQHmswwI0LsJEza-58" value="5. display &quot;Connection restored&quot;" style="html=1;verticalAlign=bottom;endArrow=open;dashed=1;endSize=8;rounded=0;" edge="1" parent="1" source="QCJIKbQHmswwI0LsJEza-52" target="QCJIKbQHmswwI0LsJEza-48">
          <mxGeometry relative="1" as="geometry">
            <mxPoint x="320" y="1350" as="sourcePoint" />
            <mxPoint x="240" y="1350" as="targetPoint" />
            <Array as="points">
              <mxPoint x="400" y="1350" />
            </Array>
          </mxGeometry>
        </mxCell>
        <mxCell id="QCJIKbQHmswwI0LsJEza-59" value="6. confirm sync" style="html=1;verticalAlign=bottom;endArrow=block;rounded=0;" edge="1" parent="1" source="QCJIKbQHmswwI0LsJEza-48" target="QCJIKbQHmswwI0LsJEza-50">
          <mxGeometry width="80" relative="1" as="geometry">
            <mxPoint x="240" y="1370" as="sourcePoint" />
            <mxPoint x="320" y="1370" as="targetPoint" />
            <Array as="points">
              <mxPoint x="270" y="1370" />
            </Array>
          </mxGeometry>
        </mxCell>
        <mxCell id="QCJIKbQHmswwI0LsJEza-60" value="7. syncUserData()" style="html=1;verticalAlign=bottom;endArrow=block;rounded=0;" edge="1" parent="1" source="QCJIKbQHmswwI0LsJEza-50" target="QCJIKbQHmswwI0LsJEza-51">
          <mxGeometry width="80" relative="1" as="geometry">
            <mxPoint x="240" y="1400" as="sourcePoint" />
            <mxPoint x="320" y="1400" as="targetPoint" />
            <Array as="points">
              <mxPoint x="460" y="1400" />
            </Array>
          </mxGeometry>
        </mxCell>
        <mxCell id="QCJIKbQHmswwI0LsJEza-61" value="" style="html=1;points=[];perimeter=orthogonalPerimeter;" vertex="1" parent="1">
          <mxGeometry x="545" y="1420" width="10" height="40" as="geometry" />
        </mxCell>
        <mxCell id="QCJIKbQHmswwI0LsJEza-62" value="8. collectPendingChanges()" style="edgeStyle=orthogonalEdgeStyle;html=1;align=left;spacingLeft=2;endArrow=block;rounded=0;entryX=1;entryY=0;" edge="1" parent="1" target="QCJIKbQHmswwI0LsJEza-61">
          <mxGeometry relative="1" as="geometry">
            <mxPoint x="550" y="1400" as="sourcePoint" />
            <Array as="points">
              <mxPoint x="580" y="1400" />
            </Array>
          </mxGeometry>
        </mxCell>
        <mxCell id="QCJIKbQHmswwI0LsJEza-63" value="9. showSyncProgress()" style="html=1;verticalAlign=bottom;endArrow=block;rounded=0;" edge="1" parent="1" source="QCJIKbQHmswwI0LsJEza-51" target="QCJIKbQHmswwI0LsJEza-52">
          <mxGeometry width="80" relative="1" as="geometry">
            <mxPoint x="240" y="1470" as="sourcePoint" />
            <mxPoint x="320" y="1470" as="targetPoint" />
            <Array as="points">
              <mxPoint x="600" y="1470" />
            </Array>
          </mxGeometry>
        </mxCell>
        <mxCell id="QCJIKbQHmswwI0LsJEza-64" value="10. display &quot;Synchronizing data...&quot;" style="html=1;verticalAlign=bottom;endArrow=open;dashed=1;endSize=8;rounded=0;" edge="1" parent="1" source="QCJIKbQHmswwI0LsJEza-52" target="QCJIKbQHmswwI0LsJEza-48">
          <mxGeometry relative="1" as="geometry">
            <mxPoint x="320" y="1490" as="sourcePoint" />
            <mxPoint x="240" y="1490" as="targetPoint" />
            <Array as="points">
              <mxPoint x="400" y="1490" />
            </Array>
          </mxGeometry>
        </mxCell>
        <mxCell id="QCJIKbQHmswwI0LsJEza-65" value="" style="html=1;points=[];perimeter=orthogonalPerimeter;" vertex="1" parent="1">
          <mxGeometry x="545" y="1510" width="10" height="40" as="geometry" />
        </mxCell>
        <mxCell id="QCJIKbQHmswwI0LsJEza-66" value="11. updateMuseumData()" style="edgeStyle=orthogonalEdgeStyle;html=1;align=left;spacingLeft=2;endArrow=block;rounded=0;entryX=1;entryY=0;" edge="1" parent="1" target="QCJIKbQHmswwI0LsJEza-65">
          <mxGeometry relative="1" as="geometry">
            <mxPoint x="550" y="1490" as="sourcePoint" />
            <Array as="points">
              <mxPoint x="580" y="1490" />
            </Array>
          </mxGeometry>
        </mxCell>
        <mxCell id="QCJIKbQHmswwI0LsJEza-67" value="12. return syncResult" style="html=1;verticalAlign=bottom;endArrow=open;dashed=1;endSize=8;rounded=0;" edge="1" parent="1" source="QCJIKbQHmswwI0LsJEza-51" target="QCJIKbQHmswwI0LsJEza-50">
          <mxGeometry relative="1" as="geometry">
            <mxPoint x="320" y="1560" as="sourcePoint" />
            <mxPoint x="240" y="1560" as="targetPoint" />
            <Array as="points">
              <mxPoint x="460" y="1560" />
            </Array>
          </mxGeometry>
        </mxCell>
        <mxCell id="QCJIKbQHmswwI0LsJEza-69" value="13. switchToOnlineMode()" style="edgeStyle=orthogonalEdgeStyle;html=1;align=left;spacingLeft=2;endArrow=block;rounded=0;entryX=1;entryY=0;" edge="1" parent="1" target="QCJIKbQHmswwI0LsJEza-68">
          <mxGeometry x="0.4118" y="10" relative="1" as="geometry">
            <mxPoint x="400" y="1560" as="sourcePoint" />
            <Array as="points">
              <mxPoint x="400" y="1570" />
              <mxPoint x="430" y="1570" />
              <mxPoint x="430" y="1590" />
            </Array>
            <mxPoint as="offset" />
          </mxGeometry>
        </mxCell>
        <mxCell id="QCJIKbQHmswwI0LsJEza-70" value="14. display &quot;Sync complete&quot;" style="html=1;verticalAlign=bottom;endArrow=open;dashed=1;endSize=8;rounded=0;" edge="1" parent="1" source="QCJIKbQHmswwI0LsJEza-50" target="QCJIKbQHmswwI0LsJEza-48">
          <mxGeometry relative="1" as="geometry">
            <mxPoint x="320" y="1630" as="sourcePoint" />
            <mxPoint x="240" y="1630" as="targetPoint" />
            <Array as="points">
              <mxPoint x="250" y="1630" />
            </Array>
          </mxGeometry>
        </mxCell>
      </root>
    </mxGraphModel>
  </diagram>
</mxfile>
